<svg width="471" height="282" viewBox="0 0 471 282" fill="none" xmlns="http://www.w3.org/2000/svg">
<g clip-path="url(#clip0_8_60)">
<path d="M360.609 278.811C354.579 273.708 350.916 265.647 351.876 257.8C352.837 249.953 358.786 242.739 366.504 241.073C374.221 239.406 383.018 244.019 385.362 251.568C386.652 237.013 388.138 221.848 395.866 209.453C402.862 198.23 414.981 190.199 428.115 188.762C441.249 187.326 455.077 192.752 463.268 203.133C471.459 213.515 473.465 228.607 467.728 240.526C463.502 249.306 455.716 255.84 447.558 261.156C421.197 278.189 389.581 285.116 358.526 280.662L360.609 278.811Z" fill="#F2F2F2"/>
<path d="M450.28 193.053C439.443 201.893 429.501 211.779 420.599 222.569C406.666 239.399 395.391 258.267 387.167 278.517C386.565 279.995 388.961 280.638 389.556 279.177C403.011 246.266 424.492 217.258 452.032 194.807C453.269 193.799 451.507 192.053 450.28 193.053Z" fill="white"/>
<path d="M151.623 277.425C159.905 270.416 164.936 259.344 163.616 248.566C162.297 237.788 154.125 227.88 143.526 225.591C132.926 223.302 120.843 229.638 117.624 240.007C115.852 220.015 113.811 199.186 103.197 182.162C93.587 166.746 76.9421 155.716 58.9027 153.743C40.8634 151.77 21.8702 159.223 10.6197 173.481C-0.630759 187.74 -3.38539 208.47 4.49416 224.84C10.2987 236.899 20.9928 245.874 32.1976 253.176C67.9446 276.47 112.289 286.185 154.483 279.967" fill="#F2F2F2"/>
<path d="M28.4586 159.636C43.3433 171.777 56.9984 185.356 69.2265 200.177C81.4565 214.982 92.2237 230.941 101.377 247.828C106.493 257.301 111.089 267.047 115.144 277.021C115.971 279.05 112.681 279.934 111.863 277.927C104.681 260.342 95.7939 243.503 85.331 227.654C74.9189 211.862 63.0017 197.119 49.7468 183.631C42.2498 176.006 34.3398 168.8 26.0527 162.045C24.354 160.66 26.774 158.262 28.4586 159.636Z" fill="white"/>
<path d="M338.091 281.383H140.488V78.3426C140.488 35.1443 175.581 0 218.717 0H259.862C302.998 0 338.091 35.1443 338.091 78.3426V281.383Z" fill="#F2F2F2"/>
<path d="M296.947 281.383H140.488V78.3426C140.445 61.79 145.679 45.6557 155.428 32.2889C155.787 31.7983 156.146 31.3142 156.515 30.8353C161.231 24.6416 166.842 19.187 173.165 14.6514C173.522 14.3911 173.881 14.1354 174.244 13.8797C179.535 10.2133 185.258 7.21604 191.283 4.95623C191.641 4.82042 192.005 4.68435 192.369 4.55383C197.818 2.60642 203.467 1.27246 209.211 0.576566C209.567 0.527853 209.932 0.489734 210.298 0.451615C215.895 -0.147731 221.54 -0.147731 227.138 0.451615C227.502 0.489734 227.868 0.527848 228.228 0.577088C233.97 1.27303 239.618 2.60683 245.065 4.55386C245.43 4.68437 245.794 4.82044 246.153 4.95651C252.103 7.18782 257.759 10.1403 262.993 13.7481C263.357 13.9983 263.721 14.254 264.079 14.5098C267.623 17.0431 270.952 19.8655 274.032 22.948C276.502 25.4205 278.803 28.056 280.921 30.8369C281.289 31.3142 281.647 31.7984 282.006 32.2881C291.756 45.6551 296.99 61.7896 296.947 78.3426V281.383Z" fill="#CCCCCC"/>
<path d="M284.224 190.57C289.008 190.57 292.886 186.687 292.886 181.896C292.886 177.105 289.008 173.221 284.224 173.221C279.44 173.221 275.562 177.105 275.562 181.896C275.562 186.687 279.44 190.57 284.224 190.57Z" fill="#1A4314"/>
<path d="M321.904 275.301H315.266L312.108 249.663L321.905 249.664L321.904 275.301Z" fill="#FFB8B8"/>
<path d="M310.525 273.402H323.326V281.473H302.466C302.466 280.413 302.674 279.364 303.079 278.384C303.484 277.405 304.078 276.515 304.826 275.766C305.575 275.016 306.463 274.422 307.441 274.016C308.419 273.611 309.467 273.402 310.525 273.402Z" fill="#2F2E41"/>
<path d="M354.928 275.301H348.29L345.133 249.663L354.929 249.664L354.928 275.301Z" fill="#FFB8B8"/>
<path d="M343.549 273.402H356.35V281.473H335.49C335.49 280.413 335.698 279.364 336.104 278.384C336.509 277.405 337.102 276.515 337.851 275.766C338.599 275.016 339.487 274.422 340.465 274.016C341.443 273.611 342.491 273.402 343.549 273.402Z" fill="#2F2E41"/>
<path d="M288.608 183.614C288.13 182.91 287.813 182.109 287.678 181.268C287.543 180.428 287.594 179.567 287.827 178.749C288.059 177.93 288.469 177.172 289.026 176.528C289.582 175.885 290.273 175.372 291.05 175.025L313.612 112.748L324.714 118.816L298.953 178.329C299.449 179.674 299.435 181.155 298.913 182.49C298.392 183.825 297.4 184.922 296.124 185.573C294.849 186.225 293.38 186.385 291.994 186.024C290.609 185.663 289.404 184.806 288.608 183.614Z" fill="#FFB8B8"/>
<path d="M351.537 195.316C350.8 194.893 350.164 194.312 349.674 193.616C349.185 192.92 348.854 192.125 348.705 191.286C348.555 190.448 348.591 189.587 348.81 188.765C349.029 187.942 349.425 187.177 349.971 186.524L342.981 120.646L355.616 121.224L358.521 186.024C359.555 187.015 360.191 188.352 360.307 189.78C360.423 191.209 360.011 192.631 359.15 193.776C358.29 194.922 357.039 195.711 355.636 195.995C354.233 196.279 352.775 196.037 351.537 195.316Z" fill="#FFB8B8"/>
<path d="M331.381 101.213C338.725 101.213 344.678 95.2512 344.678 87.8969C344.678 80.5426 338.725 74.5808 331.381 74.5808C324.038 74.5808 318.085 80.5426 318.085 87.8969C318.085 95.2512 324.038 101.213 331.381 101.213Z" fill="#FFB8B8"/>
<path d="M351.452 180.334H311.365L311.413 180.021C311.485 179.554 318.558 133.157 313.342 117.978C312.818 116.487 312.864 114.854 313.471 113.394C314.077 111.934 315.202 110.751 316.627 110.072C324.083 106.555 338.395 102.226 350.474 112.733C352.252 114.305 353.64 116.269 354.529 118.471C355.418 120.672 355.783 123.05 355.596 125.418L351.452 180.334Z" fill="#1A4314"/>
<path d="M319.064 140.014L301.016 136.347L309.476 116.271C309.982 114.326 311.238 112.662 312.968 111.644C314.698 110.625 316.76 110.335 318.703 110.838C320.646 111.34 322.311 112.594 323.332 114.323C324.353 116.053 324.648 118.118 324.151 120.065L319.064 140.014Z" fill="#1A4314"/>
<path d="M342.179 146.822L341.094 121.914C340.271 117.232 342.948 112.806 347.064 112.082C351.181 111.362 355.202 114.609 356.028 119.326L360.107 142.6L342.179 146.822Z" fill="#1A4314"/>
<path d="M350.119 177.352C356.569 201.953 357.273 233.232 355.532 267.351L346.87 266.266L331.17 201.207L322.508 267.351L312.764 266.809C309.852 231.01 307.018 200.277 311.681 180.063L350.119 177.352Z" fill="#2F2E41"/>
<path d="M340.143 98.1879C337.662 100.834 333.055 99.4136 332.732 95.7985C332.707 95.5179 332.709 95.2354 332.738 94.9551C332.905 93.3538 333.828 91.9 333.607 90.2092C333.557 89.7884 333.4 89.3874 333.152 89.0441C331.175 86.3933 326.535 90.2298 324.67 87.8301C323.526 86.3587 324.871 84.0419 323.993 82.3973C322.834 80.2267 319.402 81.2975 317.25 80.1088C314.856 78.7862 314.999 75.1072 316.575 72.8694C318.498 70.1404 321.868 68.6842 325.196 68.4743C328.524 68.2645 331.829 69.1654 334.937 70.3781C338.467 71.7559 341.968 73.6601 344.14 76.7689C346.782 80.5495 347.037 85.6321 345.715 90.0528C344.912 92.742 342.168 96.027 340.143 98.1879Z" fill="#2F2E41"/>
<path d="M454.749 281.732H55.0516C54.8809 281.731 54.7174 281.663 54.597 281.542C54.4765 281.421 54.4088 281.257 54.4088 281.086C54.4088 280.915 54.4765 280.751 54.597 280.63C54.7174 280.509 54.8809 280.441 55.0516 280.44H454.749C454.919 280.441 455.083 280.509 455.203 280.63C455.324 280.751 455.391 280.915 455.391 281.086C455.391 281.257 455.324 281.421 455.203 281.542C455.083 281.663 454.919 281.731 454.749 281.732Z" fill="#3F3D56"/>
<path d="M253.907 222.558H183.528C182.601 222.563 181.71 222.2 181.05 221.548C180.39 220.896 180.016 220.008 180.009 219.08V61.7607C180.016 60.8325 180.39 59.945 181.05 59.2929C181.71 58.6409 182.601 58.2775 183.528 58.2825H253.907C254.834 58.2775 255.725 58.6409 256.385 59.2929C257.044 59.945 257.419 60.8325 257.426 61.7607V219.08C257.419 220.008 257.044 220.896 256.385 221.548C255.725 222.2 254.834 222.563 253.907 222.558Z" fill="white"/>
<path d="M257.426 109.186H180.009V110.27H257.426V109.186Z" fill="#CCCCCC"/>
<path d="M257.417 149H180V150.084H257.417V149Z" fill="#CCCCCC"/>
<path d="M205.453 58.2825H204.371V223.1H205.453V58.2825Z" fill="#CCCCCC"/>
<path d="M232.522 58.2825H231.44V223.1H232.522V58.2825Z" fill="#CCCCCC"/>
</g>
<defs>
<clipPath id="clip0_8_60">
<rect width="471" height="282" fill="white"/>
</clipPath>
</defs>
</svg>
